<?xml version="1.0" encoding="utf-8"?>
<!-- Generator: Adobe Illustrator 19.0.0, SVG Export Plug-In . SVG Version: 6.00 Build 0)  -->
<svg version="1.1" id="Layer_1" xmlns="http://www.w3.org/2000/svg" xmlns:xlink="http://www.w3.org/1999/xlink" x="0px" y="0px"
	 viewBox="-191 193 128 128" style="enable-background:new -191 193 128 128;" xml:space="preserve">
<style type="text/css">
	.st0{clip-path:url(#SVGID_2_);}
	.st1{fill:#95CFFB;}
	.st2{opacity:0.25;fill:#070707;enable-background:new    ;}
	.st3{fill:#E34664;}
	.st4{fill:#FFFFFF;}
	.st5{clip-path:url(#SVGID_4_);}
	.st6{fill:#7FB1D6;}
</style>
<g>
	<g>
		<g>
			<defs>
				<rect id="SVGID_1_" x="-191.2" y="193" width="128.4" height="128"/>
			</defs>
			<clipPath id="SVGID_2_">
				<use xlink:href="#SVGID_1_"  style="overflow:visible;"/>
			</clipPath>
			<g class="st0">
				<g>
					<rect x="-191" y="193" class="st1" width="128" height="128"/>
				</g>
				<g>
					<path class="st2" d="M-63.4,193.4l-127.8-0.4l-0.4,28.8c0.4,4,3.9,7.2,8,7.2c4.4,0,8-3.6,8-8c0,4.4,3.6,8,8,8s8-3.6,8-8
						c0,4.4,3.6,8,8,8s8-3.6,8-8c0,4.4,3.6,8,8,8s8-3.6,8-8c0,4.4,3.6,8,8,8s8-3.6,8-8c0,4.4,3.6,8,8,8s8-3.6,8-8c0,4.4,3.6,8,8,8
						s8-3.6,8-8c0,4.4,3.6,8,8,8s8-3.6,8-8L-63.4,193.4z"/>
					<path class="st3" d="M-137.7,152.6v6.3l-5.3,30.7v27.6c0,0.3,0,0.6,0,0.8c0.2,2.4,1.6,4.6,3.5,5.9c1.3,0.9,2.8,1.4,4.5,1.4
						c4.1,0,7.6-3.2,8-7.2c0-0.3,0-0.5,0-0.8v-64.5h-10.7V152.6z M-159.3,152.6v6.3l-15.8,30.7v27.6c0,0.3,0,0.6,0,0.8
						c0.4,4,3.9,7.2,8,7.2c4.4,0,8-3.6,8-8v-27.6l10.5-30.7v-6.3H-159.3z M-105.1,160L-105.1,160l-0.4-1.1v-6.3h-10.7v6.3l1.6,9.1
						l3.7,21.6v27.6c0,1.6,0.5,3.2,1.4,4.5c0.5,0.7,1.1,1.4,1.8,1.9c1.1,0.8,2.3,1.4,3.7,1.6c0.4,0.1,0.8,0.1,1.2,0.1
						c1.5,0,2.9-0.4,4.1-1.1c2.2-1.3,3.7-3.5,3.9-6.1c0-0.3,0-0.5,0-0.8v-27.6L-105.1,160z M-62.9,193.4v-3.8l-21-30.7v-6.3h-10.8
						v6.3l15.8,30.7v27.6c0,0.2,0,0.5,0,0.7c0.3,4.1,3.8,7.3,8,7.3c3.3,0,6.2-2.1,7.4-5c0.3-0.7,0.5-1.5,0.6-2.3c0-0.3,0-0.5,0-0.8
						V193.4z M-94.9,189.6v3.8h0.1L-94.9,189.6L-105,160L-94.9,189.6z"/>
					<path class="st4" d="M-94.6,158.9v-6.3h-10.8v6.3l0.4,1.1l0,0l10.1,29.6v27.6c0,0.3,0,0.6,0,0.8c0.4,4,3.9,7.2,8,7.2
						c4.2,0,7.6-3.2,8-7.3c0-0.2,0-0.5,0-0.7v-27.6L-94.6,158.9z M-114.6,168l-1.6-9.1v-6.3H-127v64.5c0,0.3,0,0.6,0,0.8
						c0.1,1.5,0.7,2.9,1.6,4c1.5,2,3.8,3.2,6.4,3.2c4.4,0,8-3.6,8-8v-27.6L-114.6,168z M-170,152.6v6.3l-21.1,30.7v27.6
						c0,4.4,3.6,8,8,8c4.1,0,7.6-3.2,8-7.2c0-0.3,0-0.5,0-0.8v-27.6l15.8-30.7v-6.3H-170z M-137.7,155.8v-3.2h-10.8v6.3l-10.5,30.7
						v27.6c0,2.9,1.6,5.5,3.9,6.9c1.2,0.7,2.6,1.2,4.1,1.2c4.1,0,7.6-3.2,8-7.2c0-0.3,0-0.5,0-0.8v-27.6l5.3-30.7V155.8z
						 M-94.6,152.6L-94.6,152.6l-0.1,6.3H-105v1.1l10.1,29.6v3.8h16.1v-3.8l-15.8-30.7C-94.6,158.9-94.6,152.6-94.6,152.6z"/>
				</g>
			</g>
		</g>
	</g>
	<g>
		<g>
			<defs>
				<rect id="SVGID_3_" x="-191" y="193" width="128" height="128"/>
			</defs>
			<clipPath id="SVGID_4_">
				<use xlink:href="#SVGID_3_"  style="overflow:visible;"/>
			</clipPath>
			<g class="st5">
				<path class="st3" d="M-127.2,236.6c-14.1,0-25.5,11.4-25.5,25.5c0,4.3,1,8.3,2.9,11.8c2.6,4.9,6.8,8.9,11.8,11.3l10.8,16.3
					l5-7.5l5.8-8.8c8.7-4,14.7-12.8,14.7-23.1C-101.7,248-113.1,236.6-127.2,236.6z M-122.2,274.2c-1.5,0.6-3.2,1-5,1
					c-7.3,0-13.1-5.9-13.1-13.1c0-1.5,0.3-3,0.8-4.4c1.8-5.1,6.7-8.7,12.3-8.7c7.3,0,13.1,5.9,13.1,13.1
					C-114,267.5-117.4,272.2-122.2,274.2z"/>
				<ellipse class="st6" cx="-127.2" cy="308.6" rx="16.3" ry="2.4"/>
			</g>
		</g>
	</g>
</g>
</svg>
